<?xml version="1.0" standalone="no"?>
<!DOCTYPE svg PUBLIC "-//W3C//DTD SVG 20010904//EN"
 "http://www.w3.org/TR/2001/REC-SVG-20010904/DTD/svg10.dtd">
<svg version="1.0" xmlns="http://www.w3.org/2000/svg"
 width="16.000000pt" height="16.000000pt" viewBox="0 0 16.000000 16.000000"
 preserveAspectRatio="xMidYMid meet">
<metadata>
Created by potrace 1.11, written by Peter Selinger 2001-2013
</metadata>
<g transform="translate(0.000000,16.000000) scale(0.005926,-0.005926)"
fill="#000000" stroke="none">
<path d="M0 1350 l0 -1350 1350 0 1350 0 0 1350 0 1350 -1350 0 -1350 0 0
-1350z m1526 1155 c91 -16 181 -40 200 -53 7 -5 -20 -93 -85 -269 -53 -144
-99 -264 -102 -268 -3 -3 -32 1 -65 10 -75 19 -213 19 -289 0 -320 -84 -516
-412 -435 -729 42 -164 155 -310 299 -385 347 -180 758 -3 866 374 23 77 23
220 1 304 -33 128 -126 267 -225 336 -23 15 -41 32 -41 38 0 17 284 487 295
487 20 0 183 -130 243 -195 213 -228 322 -505 322 -822 0 -459 -256 -861 -674
-1059 -580 -274 -1269 -37 -1556 536 -259 517 -111 1135 354 1482 141 105 351
192 521 217 99 14 276 12 371 -4z"/>
</g>
</svg>
