<?xml version="1.0" standalone="no"?>
<!DOCTYPE svg PUBLIC "-//W3C//DTD SVG 20010904//EN"
 "http://www.w3.org/TR/2001/REC-SVG-20010904/DTD/svg10.dtd">
<svg version="1.0" xmlns="http://www.w3.org/2000/svg"
 width="16.000000pt" height="16.000000pt" viewBox="0 0 16.000000 16.000000"
 preserveAspectRatio="xMidYMid meet">
<metadata>
Created by potrace 1.11, written by Peter Selinger 2001-2013
</metadata>
<g transform="translate(0.000000,16.000000) scale(0.005926,-0.005926)"
fill="#000000" stroke="none">
<path d="M0 1350 l0 -1350 1350 0 1350 0 0 1350 0 1350 -1350 0 -1350 0 0
-1350z m1624 1136 c55 -14 103 -29 107 -33 7 -8 -175 -520 -190 -536 -4 -4
-34 -1 -66 8 -75 19 -201 19 -283 0 -219 -52 -401 -240 -448 -465 -30 -141 0
-307 78 -437 74 -123 225 -231 378 -269 84 -21 229 -14 322 15 84 27 203 106
263 174 56 64 108 163 129 243 20 77 21 231 2 302 -35 129 -113 248 -215 328
l-59 45 145 245 c80 134 150 244 157 244 6 0 49 -29 97 -64 246 -185 410 -457
460 -765 16 -99 14 -293 -5 -394 -133 -708 -858 -1135 -1540 -906 -612 205
-948 878 -746 1491 33 100 108 244 170 327 181 242 423 396 725 461 134 29
380 23 519 -14z"/>
</g>
</svg>
